<?xml version="1.0" encoding="UTF-8"?>
<svg id="Camada_1" data-name="Camada 1" xmlns="http://www.w3.org/2000/svg" viewBox="0 0 435.61 439.24">
  <defs>
    <style>
      .cls-1 {
        fill: #e94445;
      }
    </style>
  </defs>
  <path class="cls-1" d="M226.11,307.89c-6.13-2.44-9.79-7.82-9.45-13.65s4.65-11.65,11.11-12.56c6.16-.87,11.25,1.37,14.47,6.13s2.88,11.03-.46,15.44c-3.74,4.95-9.17,7.24-15.67,4.65Z"/>
  <path class="cls-1" d="M344.66,44.92c-2.94,6.09-8.49,9.11-14.25,8.8-5.73-.31-10.43-4.18-12.64-10.24-2.06-5.63,1.15-12.2,5.34-15.15,5.45-3.84,11.67-3.32,16.79-.07,5.09,3.23,7.64,10.67,4.76,16.65Z"/>
  <path class="cls-1" d="M233.8,338.39l-66.98.32.04,12.17c.02,4.88-.65,11.19-3.91,14.92-5.02,5.74-12.78,6.51-20.08,5.91-.13,11.79.37,23.38-.34,34.96-1.24,20.29-19.23,32.74-38.7,32.57l-72.07-.62c-8.04-.07-16.59-5.02-22-10.89C4.97,422.55,0,414.27,0,406.54l.22-219.41c.02-17.08,15.27-32.71,31.62-32.84l73-.58c20.55-.16,37.9,15.11,37.94,36.04l.1,45.03c7.13-.48,14.44.1,19.63,5.38,3.41,3.48,4.27,9.58,4.25,14.46l-.04,11.71,16.19-.14,14.87.34c5.32-6.68,12.31-11.01,20.75-13.11l8.22-23.67-10.66-4.23c-7.99-3.17-12.68-11.06-12.23-19.14.6-8.37,5.9-15.81,15.27-17.94-1.74-9.58,2.8-18.33,11.75-21-4.92-5.7-6.26-12.01-3.96-18.64,1.9-5.47,6.74-9.49,13.01-12.17-1.99-5.55-2.82-11.46.22-16.83,2.54-4.5,7.4-8.46,13.73-9.36-4.12-3.77-7-8.85-7.07-14.22-.08-5.71,2.64-11.47,7.2-15.19,5.97-4.86,13.06-6.07,20.83-3.82,1.15-11.85,9.56-19.52,21.2-19.54-7.14-15.26-4.88-33.03,6.68-45.15s28.64-16.07,44.71-9.38c13.98,5.82,24.76,20.73,23.89,37.35-.83,15.92-10.67,29.24-25.91,35.6,8.21,6.02,5.37,16.7,3.4,24.45,6.97,4.26,14.32,10.25,13.39,20.39-.78,8.58-5.55,16.88-15.25,18.41,3.16,12.93-.16,21.21-12.08,25.73,3.64,5.42,3.98,11.43,1.65,17.51-1.84,4.81-6.39,8.58-12.66,10.27,2.8,4.99,3.1,10.78.46,16.56-1.91,4.2-6.46,8.08-11.22,9.57,5.92,7.46,4.62,17.43-.59,23.72-5.98,7.22-14.06,9.48-23.37,6.71l-12.6-3.75-7.06,20.2,27.42.57,50.95-.12c4.16-9.84,13.52-15.64,25.64-13.04l.6-12.53c.41-8.61,8.04-15.97,16.66-15.95l28.03.05c9.18.02,16.73,7.75,16.73,17.4l.08,102.18c0,9.93-7,18.95-17.03,18.93l-28.44-.05c-8.69-.02-15.58-7.33-16-15.74l-.65-13.21c-11.75,2.38-21.5-2.37-25.26-13.24l-17.39.45-37,.03-29.18,11.21c-10.32,1.47-20.33,5.53-30.87,5.58ZM334.53,62.03c12.31-1.71,20.42-12.33,19.97-23.62s-9-20.95-20.52-21.79c-7.51-.55-14.28,2.01-19.12,6.77s-6.88,12.01-6.02,19.49c1.41,12.26,12.77,20.96,25.68,19.16ZM334.1,87.13l-32.82-10.98c-2.74-.92-5.21-1.33-8.55-1.57l-2.3,7.56,42.01,13.44c1.24-2.11,2.26-5.21,1.66-8.45ZM339.01,125.84c2.8.89,7.32-3.28,7.08-5.57-.18-1.73-1.45-3.59-3.62-4.29l-74.8-24.17c-1.79-.58-5.07,2.98-4.85,4.59.28,2.07.19,4.63,2.45,5.37l15.18,4.99,58.55,19.08ZM327.43,152.65c2.41.54,5.19-4.33,4.75-6.41-.35-1.67-1.79-3.46-3.61-4.12l-22.32-7.75c-15.98-3.8-30.67-10.71-46.77-13.1-4.11-1.07-4.54,5.73-4.8,6.85-.22.93,1.59,2.9,2.71,3.29l13.97,4.88c11.25,3.93,22.24,6.92,34.13,10.58l21.94,5.79ZM320.82,171.32l-22.31-7c-10.31-3.42-17.83-5.81-27.9-9.08l-21.29-5.72c-2.82-.58-6.87,2.9-6.81,5.76.03,1.65,1.63,3.43,3.78,4.13,17.68,5.75,35.18,12.03,53.08,16.63l16.84,4.33c2.3.59,5.41-2.1,5.77-4.03.32-1.68,0-6.01-1.16-5.02ZM62.67,422.07l.02-251.28-14.01.08v250.91c4.79.74,9.12.82,13.98.29ZM93.73,422.2v-251.38s-14.02,0-14.02,0v251.61s14.02-.23,14.02-.23ZM31.65,421.51l.08-249.91c-8.05.87-13.6,7.05-14.84,15.57l.04,217.3c0,8.83,7.16,15.87,14.73,17.04ZM125.69,406.1l.21-215.17c0-9.91-5.06-18.31-15.2-19.5l.07,250.49c6.97-1.54,14.92-7.2,14.92-15.81ZM304.08,209.24c1.83.4,5.93-5.73,5.98-7.13.06-1.59-1.21-4.2-2.6-4.64l-16.08-5.09c-16.51-4.83-29.5-8.92-50.16-15.07-1.44-.43-5.58,5.61-5.59,6.96-.02,1.16,1.28,3.88,2.54,4.26,8.79,2.67,19.07,7.27,28.16,9.27l37.75,11.44ZM295.04,234.71c1.46.47,5.22-1.24,5.34-2.71.1-1.29-.83-3.79-1.71-5.45l-74.28-23.91c-1.77,1.05-3.84,2.62-4.51,3.73s1.41,4.38,2.65,4.78l32.34,10.56,40.17,13ZM254.35,258.78l6.31-17.86-17.84-5.64-6.5,16.98c7.01,1.62,12.11,3.14,18.03,6.53ZM418.77,346.54v-104.99s-17.91-.22-17.91-.22l-10.18.43.04,104.9,28.04-.11ZM149.73,352l.13-100.14-7.02-.02.02,101.66c1.28.88,6.86.33,6.87-1.5ZM239.92,320.26c8.88-2.92,14.7-10.82,16.72-18.45,2.37-8.93-.27-17.7-6.43-24.77-10.85-12.44-32.24-11.44-41.54,2.13-7.12,10.38-6.49,23.28.6,32.51,6.95,9.04,18.78,12.49,30.65,8.58ZM373.79,317.77l-.03-48.07-9.99.4.1,47.02c3.82.88,6.87,1.26,9.92.65ZM195.54,321.64c-9.18-12.2-10.45-25.46-7.56-38.84h-21.18s-.04,39.03-.04,39.03l28.79-.19ZM327.85,304.45l18.99-.7.05-20.9-74.16-.03c2.94,9.94,1.65,18.8-1.34,29.59l20.27-7.8,36.2-.16Z"/>
</svg>